<svg width="100%" height="100%" id="svg" viewBox="0 0 1440 690" xmlns="http://www.w3.org/2000/svg" class="transition duration-300 ease-in-out delay-150"><defs><linearGradient id="gradient" x1="5%" y1="28%" x2="95%" y2="72%"><stop offset="5%" stop-color="#ff4b1f"></stop><stop offset="95%" stop-color="#ff9068"></stop></linearGradient></defs><path d="M 0,700 L 0,175 C 152.53333333333336,139.4 305.0666666666667,103.8 455,103 C 604.9333333333333,102.2 752.2666666666667,136.2 916,154 C 1079.7333333333333,171.8 1259.8666666666668,173.4 1440,175 L 1440,700 L 0,700 Z" stroke="none" stroke-width="0" fill="url(#gradient)" fill-opacity="0.53" class="transition-all duration-300 ease-in-out delay-150 path-0"></path><defs><linearGradient id="gradient" x1="5%" y1="28%" x2="95%" y2="72%"><stop offset="5%" stop-color="#ff4b1f"></stop><stop offset="95%" stop-color="#ff9068"></stop></linearGradient></defs><path d="M 0,700 L 0,408 C 120.80000000000001,369.73333333333335 241.60000000000002,331.46666666666664 424,347 C 606.4,362.53333333333336 850.4000000000001,431.8666666666667 1030,451 C 1209.6,470.1333333333333 1324.8,439.06666666666666 1440,408 L 1440,700 L 0,700 Z" stroke="none" stroke-width="0" fill="url(#gradient)" fill-opacity="1" class="transition-all duration-300 ease-in-out delay-150 path-1"></path></svg>