<svg width="100%" height="100%" id="svg" viewBox="0 0 1440 590" xmlns="http://www.w3.org/2000/svg" class="transition duration-300 ease-in-out delay-150"><defs><linearGradient id="gradient" x1="0%" y1="50%" x2="100%" y2="50%"><stop offset="5%" stop-color="#F78DA7"></stop><stop offset="95%" stop-color="#8ED1FC"></stop></linearGradient></defs><path d="M 0,600 L 0,112 C 98.7948717948718,136.7076923076923 197.5897435897436,161.4153846153846 273,140 C 348.4102564102564,118.58461538461539 400.43589743589735,51.04615384615386 477,61 C 553.5641025641027,70.95384615384614 654.6666666666667,158.4 731,167 C 807.3333333333333,175.6 858.8974358974359,105.35384615384615 939,95 C 1019.1025641025641,84.64615384615385 1127.7435897435898,134.18461538461537 1216,147 C 1304.2564102564102,159.81538461538463 1372.128205128205,135.90769230769232 1440,112 L 1440,600 L 0,600 Z" stroke="none" stroke-width="0" fill="url(#gradient)" fill-opacity="0.4" class="transition-all duration-300 ease-in-out delay-150 path-0"></path><defs><linearGradient id="gradient" x1="0%" y1="50%" x2="100%" y2="50%"><stop offset="5%" stop-color="#F78DA7"></stop><stop offset="95%" stop-color="#8ED1FC"></stop></linearGradient></defs><path d="M 0,600 L 0,262 C 93.32051282051285,239.67948717948718 186.6410256410257,217.35897435897436 264,220 C 341.3589743589743,222.64102564102564 402.7564102564103,250.24358974358972 482,258 C 561.2435897435897,265.7564102564103 658.3333333333334,253.66666666666669 746,265 C 833.6666666666666,276.3333333333333 911.9102564102564,311.08974358974365 976,313 C 1040.0897435897436,314.91025641025635 1090.025641025641,283.97435897435895 1165,270 C 1239.974358974359,256.02564102564105 1339.9871794871794,259.01282051282055 1440,262 L 1440,600 L 0,600 Z" stroke="none" stroke-width="0" fill="url(#gradient)" fill-opacity="0.53" class="transition-all duration-300 ease-in-out delay-150 path-1"></path><defs><linearGradient id="gradient" x1="0%" y1="50%" x2="100%" y2="50%"><stop offset="5%" stop-color="#F78DA7"></stop><stop offset="95%" stop-color="#8ED1FC"></stop></linearGradient></defs><path d="M 0,600 L 0,412 C 63.17692307692306,408.46923076923076 126.35384615384612,404.9384615384615 219,393 C 311.6461538461539,381.0615384615385 433.7615384615385,360.7153846153846 519,358 C 604.2384615384615,355.2846153846154 652.5999999999999,370.20000000000005 731,386 C 809.4000000000001,401.79999999999995 917.8384615384616,418.4846153846154 1000,428 C 1082.1615384615384,437.5153846153846 1138.0461538461539,439.86153846153843 1207,436 C 1275.9538461538461,432.13846153846157 1357.976923076923,422.0692307692308 1440,412 L 1440,600 L 0,600 Z" stroke="none" stroke-width="0" fill="url(#gradient)" fill-opacity="1" class="transition-all duration-300 ease-in-out delay-150 path-2"></path></svg>